<svg xmlns="http://www.w3.org/2000/svg" width="1025.2509765625" height="1029.9295043945312"
     viewBox="0 0 1025.2509765625 1029.9295043945312" fill="none">
<g filter="url(#filter_179_68)">
<path d="M640.95 80L80 80L80 204.514L640.114 204.514L640.114 204.696C740.58 209.069 820.688 291.871 820.688 393.375C820.688 494.879 740.58 577.682 640.114 582.055L640.114 582.236L325.781 582.236L325.781 706.75L640.95 706.75L640.95 706.618C809.836 701.755 945.251 563.373 945.251 393.375C945.251 223.377 809.836 84.9953 640.95 80.1322L640.95 80ZM384.301 323.179L610.018 323.179L610.018 447.694L385.137 447.694L385.137 447.875C284.671 452.248 204.563 535.049 204.563 636.554C204.563 738.059 284.671 820.861 385.137 825.234L385.137 825.415L699.469 825.415L699.469 949.93L384.301 949.93L384.301 949.796C215.415 944.932 80 806.552 80 636.554C80 466.556 215.415 328.175 384.301 323.311L384.301 323.179ZM628.41 323.179L699.469 323.179L699.469 447.694L628.41 447.694L628.41 323.179Z" fill-rule="evenodd"  fill="url(#linear_fill_179_68)" >
</path>
</g>
<path d="M640.95 80L80 80L80 204.514L640.114 204.514L640.114 204.696C740.58 209.069 820.688 291.871 820.688 393.375C820.688 494.879 740.58 577.682 640.114 582.055L640.114 582.236L325.781 582.236L325.781 706.75L640.95 706.75L640.95 706.618C809.836 701.755 945.251 563.373 945.251 393.375C945.251 223.377 809.836 84.9953 640.95 80.1322L640.95 80ZM384.301 323.179L610.018 323.179L610.018 447.694L385.137 447.694L385.137 447.875C284.671 452.248 204.563 535.049 204.563 636.554C204.563 738.059 284.671 820.861 385.137 825.234L385.137 825.415L699.469 825.415L699.469 949.93L384.301 949.93L384.301 949.796C215.415 944.932 80 806.552 80 636.554C80 466.556 215.415 328.175 384.301 323.311L384.301 323.179ZM628.41 323.179L699.469 323.179L699.469 447.694L628.41 447.694L628.41 323.179Z" fill-rule="evenodd"  fill="url(#linear_fill_179_71)" >
</path>
<defs>
<linearGradient id="linear_fill_179_68" x1="80" y1="177.4930419921875" x2="781.5283203125" y2="824.8597412109375" gradientUnits="userSpaceOnUse">
<stop offset="0" stop-color="#6267FF"  />
<stop offset="1" stop-color="#FEC491"  />
</linearGradient>
<filter id="filter_179_68" x="0" y="0" width="1025.2509765625" height="1029.9295043945312" filterUnits="userSpaceOnUse" color-interpolation-filters="sRGB">
<feFlood flood-opacity="0" result="feFloodId_179_68"/>
<feBlend mode="normal" in="SourceGraphic" in2="feFloodId_179_68" result="shape"/>
<feGaussianBlur result="gaussian_blur_179_68" stdDeviation="40"/>
</filter>
<linearGradient id="linear_fill_179_71" x1="80" y1="177.4930419921875" x2="781.5283203125" y2="824.8597412109375" gradientUnits="userSpaceOnUse">
<stop offset="0" stop-color="#6267FF"  />
<stop offset="1" stop-color="#FEC491"  />
</linearGradient>
</defs>
</svg>
