<svg xmlns="http://www.w3.org/2000/svg" width="1025.24951171875" height="1029.9295043945312"
     viewBox="0 0 1025.24951171875 1029.9295043945312" fill="none">
<g filter="url(#filter_179_62)">
<path d="M640.949 80L80 80L80 204.514L640.113 204.514L640.113 204.696C740.579 209.069 820.687 291.871 820.687 393.375C820.687 494.879 740.579 577.682 640.113 582.055L640.113 582.236L325.781 582.236L325.781 706.75L640.949 706.75L640.949 706.618C809.835 701.755 945.25 563.373 945.25 393.375C945.25 223.377 809.835 84.9953 640.949 80.1322L640.949 80ZM384.3 323.179L610.018 323.179L610.018 447.694L385.136 447.694L385.136 447.875C284.67 452.248 204.563 535.049 204.563 636.554C204.563 738.059 284.67 820.861 385.136 825.234L385.136 825.415L699.469 825.415L699.469 949.93L384.3 949.93L384.3 949.796C215.415 944.932 80 806.552 80 636.554C80 466.556 215.415 328.175 384.3 323.311L384.3 323.179ZM628.409 323.179L699.469 323.179L699.469 447.694L628.409 447.694L628.409 323.179Z" fill-rule="evenodd"  fill="url(#linear_fill_179_62)" >
</path>
</g>
<g filter="url(#filter_179_49)">
<path d="M621.025 137.66L64.9526 137.66L64.9526 257.51L620.196 257.51L620.196 257.684C719.789 261.894 799.2 341.594 799.2 439.295C799.2 536.997 719.789 616.697 620.196 620.906L620.196 621.08L308.597 621.08L308.597 740.93L621.025 740.93L621.025 740.803C788.443 736.122 922.68 602.924 922.68 439.295C922.68 275.666 788.443 142.468 621.025 137.787L621.025 137.66ZM366.607 371.729L590.362 371.729L590.362 491.579L367.436 491.579L367.436 491.753C267.844 495.962 188.432 575.661 188.432 673.364C188.432 771.065 267.844 850.765 367.436 854.975L367.436 855.149L679.036 855.149L679.036 974.999L366.607 974.999L366.607 974.87C199.19 970.189 64.9526 836.993 64.9526 673.364C64.9526 509.735 199.19 376.537 366.607 371.856L366.607 371.729ZM608.594 371.729L679.036 371.729L679.036 491.579L608.594 491.579L608.594 371.729Z" fill-rule="evenodd"  fill="#686585" fill-opacity="0.4">
</path>
</g>
<path d="M640.949 80L80 80L80 204.514L640.113 204.514L640.113 204.696C740.579 209.069 820.687 291.871 820.687 393.375C820.687 494.879 740.579 577.682 640.113 582.055L640.113 582.236L325.781 582.236L325.781 706.75L640.949 706.75L640.949 706.618C809.835 701.755 945.25 563.373 945.25 393.375C945.25 223.377 809.835 84.9953 640.949 80.1322L640.949 80ZM384.3 323.179L699.469 323.179L699.469 447.694L385.136 447.694L385.136 447.875C284.67 452.248 204.563 535.049 204.563 636.554C204.563 738.059 284.67 820.861 385.136 825.234L385.136 825.415L699.469 825.415L699.469 949.93L384.3 949.93L384.3 949.796C215.415 944.932 80 806.552 80 636.554C80 466.556 215.415 328.175 384.3 323.311L384.3 323.179Z" stroke="rgba(255, 255, 255, 1)" stroke-width="60" stroke-linejoin="round"   fill-rule="evenodd"  fill="#FFFFFF" >
</path>
<path d="M640.949 80L80 80L80 204.514L640.113 204.514L640.113 204.696C740.579 209.069 820.687 291.871 820.687 393.375C820.687 494.879 740.579 577.682 640.113 582.055L640.113 582.236L325.781 582.236L325.781 706.75L640.949 706.75L640.949 706.618C809.835 701.755 945.25 563.373 945.25 393.375C945.25 223.377 809.835 84.9953 640.949 80.1322L640.949 80ZM384.3 323.179L610.018 323.179L610.018 447.694L385.136 447.694L385.136 447.875C284.67 452.248 204.563 535.049 204.563 636.554C204.563 738.059 284.67 820.861 385.136 825.234L385.136 825.415L699.469 825.415L699.469 949.93L384.3 949.93L384.3 949.796C215.415 944.932 80 806.552 80 636.554C80 466.556 215.415 328.175 384.3 323.311L384.3 323.179ZM628.409 323.179L699.469 323.179L699.469 447.694L628.409 447.694L628.409 323.179Z" fill-rule="evenodd"  fill="url(#linear_fill_179_61)" >
</path>
<defs>
<linearGradient id="linear_fill_179_62" x1="80" y1="177.4930419921875" x2="781.52734375" y2="824.8597412109375" gradientUnits="userSpaceOnUse">
<stop offset="0" stop-color="#6267FF"  />
<stop offset="1" stop-color="#FEC491"  />
</linearGradient>
<filter id="filter_179_62" x="0" y="0" width="1025.24951171875" height="1029.9295043945312" filterUnits="userSpaceOnUse" color-interpolation-filters="sRGB">
<feFlood flood-opacity="0" result="feFloodId_179_62"/>
<feBlend mode="normal" in="SourceGraphic" in2="feFloodId_179_62" result="shape"/>
<feGaussianBlur result="gaussian_blur_179_62" stdDeviation="40"/>
</filter>
<filter id="filter_179_49" x="44.95263671875" y="117.66015625" width="897.7275390625" height="877.338623046875" filterUnits="userSpaceOnUse" color-interpolation-filters="sRGB">
<feFlood flood-opacity="0" result="feFloodId_179_49"/>
<feBlend mode="normal" in="SourceGraphic" in2="feFloodId_179_49" result="shape"/>
<feGaussianBlur result="gaussian_blur_179_49" stdDeviation="10"/>
</filter>
<linearGradient id="linear_fill_179_61" x1="80" y1="177.4930419921875" x2="781.52734375" y2="824.8597412109375" gradientUnits="userSpaceOnUse">
<stop offset="0" stop-color="#6267FF"  />
<stop offset="1" stop-color="#FEC491"  />
</linearGradient>
</defs>
</svg>
